# xmcd
#
# Track frame offsets:
#	150
#	27662
#	53012
#	73387
#	96472
#	124895
#	152695
#	170967
#	192520
#	225135
#
# Disc length: 3424 seconds
#
# Revision: 1
# Processed by: cddbd v1.5.1PL0 Copyright (c) Steve Scherf et al.
# Submitted via: CDex 1.50Beta5
#
DISCID=900d5e0a
DTITLE=K. - Kirakira. Disc 2
DYEAR=2003
DGENRE=Rock
TTITLE0=Never Say…
TTITLE1=Under the same sky
TTITLE2=Water flame
TTITLE3=空のむこうへ
TTITLE4=After the silence
TTITLE5=love hole(W4M Chill Out mix),the
TTITLE6=最後のサイダー
TTITLE7=Little Wish(m-flo Remix)
TTITLE8=Echo
TTITLE9=Daybreak
EXTD=
EXTT0=
EXTT1=
EXTT2=
EXTT3=
EXTT4=
EXTT5=
EXTT6=
EXTT7=
EXTT8=
EXTT9=
PLAYORDER=
